<svg width="26" height="38" viewBox="0 0 26 38" fill="none" xmlns="http://www.w3.org/2000/svg">
<g clip-path="url(#clip0_32_134)">
<path fill-rule="evenodd" clip-rule="evenodd" d="M0.649985 10.64C0.649985 10.64 2.12726 14.6739 5.84998 22.3323C5.84998 22.3323 5.84998 22.3323 5.84998 22.3908C9.6318 30.0493 12.0545 33.4985 12.0545 33.4985C14.5363 36.1293 18.6727 37.2985 23.1045 35.1939C25.5273 34.0247 25.1136 31.277 22.8682 26.717C20.8591 22.6247 18.6136 22.5077 17.1363 23.7939C16.8409 24.0277 15.8954 24.9047 15.8363 25.197C15.8363 25.197 14.95 26.6585 11.5818 19.7016C8.21362 12.8031 9.57271 13.1539 9.57271 13.1539C9.80908 13.2123 11.1091 13.3877 11.4636 13.2708C13.3545 12.8616 14.8909 10.8739 12.7045 6.43081C10.4591 1.87081 8.56817 -0.175348 6.14544 0.993883C2.4818 2.68927 0.118167 7.07388 0.649985 10.64Z" stroke="#4664A0" stroke-width="2"/>
</g>
<defs>
<clipPath id="clip0_32_134">
<rect width="26" height="38" fill="white"/>
</clipPath>
</defs>
</svg>
