<svg width="48" height="35" viewBox="0 0 48 35" fill="none" xmlns="http://www.w3.org/2000/svg">
<path d="M0.23825 17.392C0.23825 11.76 1.16625 7.456 3.02225 4.48C4.87825 1.504 7.51825 0.0159998 10.9423 0.0159998C14.3343 0.0159998 16.9583 1.504 18.8143 4.48C20.7023 7.456 21.6462 11.76 21.6462 17.392C21.6462 22.992 20.7023 27.28 18.8143 30.256C16.9583 33.232 14.3343 34.72 10.9423 34.72C7.55025 34.72 4.91025 33.232 3.02225 30.256C1.16625 27.28 0.23825 22.992 0.23825 17.392ZM18.2383 17.392C18.2383 15.472 18.1103 13.648 17.8543 11.92C17.6303 10.16 17.2303 8.608 16.6543 7.264C16.0783 5.92 15.3263 4.848 14.3983 4.048C13.4703 3.248 12.3183 2.848 10.9423 2.848C9.53425 2.848 8.36625 3.248 7.43825 4.048C6.51025 4.848 5.75825 5.92 5.18225 7.264C4.63825 8.608 4.23825 10.16 3.98225 11.92C3.75825 13.648 3.64625 15.472 3.64625 17.392C3.64625 19.312 3.75825 21.152 3.98225 22.912C4.23825 24.64 4.63825 26.176 5.18225 27.52C5.75825 28.832 6.51025 29.888 7.43825 30.688C8.36625 31.488 9.53425 31.888 10.9423 31.888C12.3183 31.888 13.4703 31.488 14.3983 30.688C15.3263 29.888 16.0783 28.832 16.6543 27.52C17.2303 26.176 17.6303 24.64 17.8543 22.912C18.1103 21.152 18.2383 19.312 18.2383 17.392ZM46.388 8.992C46.388 10.24 46.164 11.424 45.716 12.544C45.268 13.632 44.66 14.688 43.892 15.712C43.156 16.736 42.308 17.728 41.348 18.688C40.388 19.648 39.412 20.608 38.42 21.568C37.588 22.368 36.772 23.184 35.972 24.016C35.204 24.816 34.5 25.632 33.86 26.464C33.252 27.264 32.756 28.064 32.372 28.864C32.02 29.632 31.844 30.4 31.844 31.168V31.264H47.54V34H28.388C28.388 33.936 28.372 33.824 28.34 33.664C28.34 33.472 28.34 33.2 28.34 32.848C28.34 31.344 28.612 29.952 29.156 28.672C29.7 27.36 30.388 26.128 31.22 24.976C32.084 23.824 33.028 22.752 34.052 21.76C35.108 20.768 36.116 19.808 37.076 18.88C37.876 18.112 38.628 17.376 39.332 16.672C40.068 15.936 40.708 15.184 41.252 14.416C41.796 13.648 42.228 12.832 42.548 11.968C42.868 11.104 43.028 10.16 43.028 9.136C43.028 6.896 42.42 5.296 41.204 4.336C40.02 3.344 38.516 2.848 36.692 2.848C35.668 2.848 34.756 2.976 33.956 3.232C33.156 3.488 32.452 3.792 31.844 4.144C31.268 4.464 30.772 4.8 30.356 5.152C29.94 5.504 29.636 5.776 29.444 5.968L27.812 3.808C28.004 3.584 28.34 3.264 28.82 2.848C29.332 2.4 29.956 1.968 30.692 1.552C31.46 1.136 32.34 0.783999 33.332 0.495999C34.324 0.176 35.428 0.0159998 36.644 0.0159998C39.876 0.0159998 42.308 0.815999 43.94 2.416C45.572 3.984 46.388 6.176 46.388 8.992Z" fill="#E4E4E4"/>
</svg>
