<svg width="37" height="37" viewBox="0 0 37 37" fill="none" xmlns="http://www.w3.org/2000/svg">
<path d="M28.5305 0H8.46938C6.1084 0 4.1897 1.91871 4.1897 4.27968V32.7203C4.1897 35.0813 6.1084 37 8.46938 37H28.5305C30.8907 37 32.8101 35.0813 32.8101 32.7203V4.27968C32.8101 1.91948 30.8907 0 28.5305 0ZM31.3835 32.7203C31.3835 34.2939 30.1024 35.5734 28.5305 35.5734H8.46938C6.89584 35.5734 5.6163 34.2937 5.6163 32.7203V4.27968C5.6163 2.70614 6.89595 1.4266 8.46938 1.4266H28.5305C30.1026 1.4266 31.3835 2.70625 31.3835 4.27968V32.7203ZM7.84532 11.8583H29.1545V4.27968H7.84532V11.8583ZM9.27181 5.70628H27.7279V10.4318H9.27181V5.70628ZM12.5287 15.7129V17.4412C12.5287 18.0602 12.0258 18.5618 11.4074 18.5618H9.67912C9.06005 18.5618 8.55928 18.0603 8.55928 17.4412V15.7129C8.55928 15.0945 9.06005 14.5931 9.67912 14.5931H11.4074C12.0258 14.5923 12.5287 15.0945 12.5287 15.7129ZM20.4854 15.7129V17.4412C20.4854 18.0596 19.9825 18.5618 19.3641 18.5618H17.6365C17.0174 18.5618 16.5159 18.0597 16.5159 17.4412V15.7129C16.5159 15.0938 17.0173 14.5931 17.6365 14.5931H19.3641C19.9825 14.5923 20.4854 15.0937 20.4854 15.7129ZM28.4413 15.7129V17.4412C28.4413 18.0596 27.9385 18.5618 27.3201 18.5618H25.5925C24.9741 18.5618 24.4712 18.0597 24.4712 17.4412V15.7129C24.4712 15.0938 24.9741 14.5931 25.5925 14.5931H27.3201C27.9385 14.5923 28.4413 15.0937 28.4413 15.7129ZM12.5287 22.7037V24.432C12.5287 25.0504 12.0258 25.5518 11.4074 25.5518H9.67912C9.06005 25.5518 8.55928 25.0504 8.55928 24.432V22.7037C8.55928 22.0853 9.06005 21.5839 9.67912 21.5839H11.4074C12.0258 21.5832 12.5287 22.0846 12.5287 22.7037ZM12.5287 29.6939V31.4215C12.5287 32.0405 12.0258 32.5421 11.4074 32.5421H9.67912C9.06005 32.5421 8.55928 32.0406 8.55928 31.4215V29.6939C8.55928 29.074 9.06005 28.5733 9.67912 28.5733H11.4074C12.0258 28.5734 12.5287 29.074 12.5287 29.6939ZM20.4854 22.703V24.4327C20.4854 25.0505 19.9825 25.5519 19.3641 25.5519H17.6365C17.0174 25.5519 16.5159 25.0505 16.5159 24.4327V22.703C16.5159 22.0846 17.0173 21.5832 17.6365 21.5832H19.3641C19.9825 21.5824 20.4854 22.0839 20.4854 22.703ZM20.4854 29.6932V31.4215C20.4854 32.0399 19.9825 32.5421 19.3641 32.5421H17.6365C17.0174 32.5421 16.5159 32.0399 16.5159 31.4215V29.6932C16.5159 29.0741 17.0173 28.5726 17.6365 28.5726H19.3641C19.9825 28.5726 20.4854 29.074 20.4854 29.6932ZM28.4413 22.703V24.4327C28.4413 24.4349 28.4392 24.4371 28.4392 24.4398V29.686C28.4392 29.6881 28.4413 29.6917 28.4413 29.6939V31.4221C28.4413 32.0405 27.9385 32.5427 27.3201 32.5427H25.5925C24.9726 32.5427 24.4712 32.0406 24.4712 31.4221V30.6126V29.6939V24.4327V23.181V22.703C24.4712 22.0846 24.9726 21.5832 25.5925 21.5832H27.3201C27.9385 21.5824 28.4413 22.0839 28.4413 22.703Z" fill="#4664A0"/>
</svg>
