<svg width="48" height="35" viewBox="0 0 48 35" fill="none" xmlns="http://www.w3.org/2000/svg">
<path d="M0.23825 17.392C0.23825 11.76 1.16625 7.456 3.02225 4.48C4.87825 1.504 7.51825 0.0159998 10.9423 0.0159998C14.3343 0.0159998 16.9583 1.504 18.8143 4.48C20.7023 7.456 21.6462 11.76 21.6462 17.392C21.6462 22.992 20.7023 27.28 18.8143 30.256C16.9583 33.232 14.3343 34.72 10.9423 34.72C7.55025 34.72 4.91025 33.232 3.02225 30.256C1.16625 27.28 0.23825 22.992 0.23825 17.392ZM18.2383 17.392C18.2383 15.472 18.1103 13.648 17.8543 11.92C17.6303 10.16 17.2303 8.608 16.6543 7.264C16.0783 5.92 15.3263 4.848 14.3983 4.048C13.4703 3.248 12.3183 2.848 10.9423 2.848C9.53425 2.848 8.36625 3.248 7.43825 4.048C6.51025 4.848 5.75825 5.92 5.18225 7.264C4.63825 8.608 4.23825 10.16 3.98225 11.92C3.75825 13.648 3.64625 15.472 3.64625 17.392C3.64625 19.312 3.75825 21.152 3.98225 22.912C4.23825 24.64 4.63825 26.176 5.18225 27.52C5.75825 28.832 6.51025 29.888 7.43825 30.688C8.36625 31.488 9.53425 31.888 10.9423 31.888C12.3183 31.888 13.4703 31.488 14.3983 30.688C15.3263 29.888 16.0783 28.832 16.6543 27.52C17.2303 26.176 17.6303 24.64 17.8543 22.912C18.1103 21.152 18.2383 19.312 18.2383 17.392ZM35.78 31.84C38.82 31.84 40.996 31.216 42.308 29.968C43.62 28.688 44.276 26.976 44.276 24.832C44.276 23.424 44.004 22.256 43.46 21.328C42.948 20.4 42.228 19.664 41.3 19.12C40.404 18.544 39.348 18.144 38.132 17.92C36.948 17.664 35.684 17.536 34.34 17.536H33.86V14.944H34.964C35.828 14.944 36.708 14.864 37.604 14.704C38.532 14.512 39.364 14.176 40.1 13.696C40.868 13.216 41.492 12.576 41.972 11.776C42.484 10.976 42.74 9.952 42.74 8.704C42.74 7.648 42.564 6.752 42.212 6.016C41.86 5.248 41.38 4.64 40.772 4.192C40.196 3.744 39.508 3.424 38.708 3.232C37.94 3.008 37.124 2.896 36.26 2.896C34.532 2.896 33.188 3.136 32.228 3.616C31.268 4.096 30.484 4.544 29.876 4.96L28.532 2.512C28.852 2.288 29.252 2.032 29.732 1.744C30.244 1.456 30.836 1.184 31.508 0.927999C32.18 0.671999 32.916 0.463999 33.716 0.303999C34.548 0.112 35.444 0.0159998 36.404 0.0159998C38.068 0.0159998 39.492 0.223999 40.676 0.639997C41.892 1.056 42.9 1.648 43.7 2.416C44.5 3.152 45.092 4.048 45.476 5.104C45.86 6.128 46.052 7.248 46.052 8.464C46.052 10.416 45.524 12.016 44.468 13.264C43.444 14.48 42.116 15.36 40.484 15.904C41.38 16.128 42.244 16.48 43.076 16.96C43.94 17.408 44.708 18 45.38 18.736C46.052 19.44 46.596 20.304 47.012 21.328C47.428 22.352 47.636 23.552 47.636 24.928C47.636 26.336 47.38 27.632 46.868 28.816C46.388 30 45.652 31.04 44.66 31.936C43.7 32.8 42.468 33.488 40.964 34C39.46 34.48 37.7 34.72 35.684 34.72C34.628 34.72 33.652 34.64 32.756 34.48C31.892 34.352 31.124 34.192 30.452 34C29.78 33.808 29.204 33.616 28.724 33.424C28.276 33.232 27.94 33.072 27.716 32.944L28.532 30.16C28.724 30.288 29.044 30.448 29.492 30.64C29.94 30.832 30.468 31.024 31.076 31.216C31.716 31.376 32.42 31.52 33.188 31.648C33.988 31.776 34.852 31.84 35.78 31.84Z" fill="#E4E4E4"/>
</svg>
