<svg width="38" height="38" viewBox="0 0 38 38" fill="none" xmlns="http://www.w3.org/2000/svg">
<path d="M28.1481 30.9629H9.85181V32.3703H28.1481V30.9629Z" fill="#4664A0"/>
<path d="M19.7037 9.85181H9.85181V11.2592H19.7037V9.85181Z" fill="#4664A0"/>
<path d="M28.1481 26.7407H9.85181V28.1481H28.1481V26.7407Z" fill="#4664A0"/>
<path d="M19.7037 5.62964H9.85181V7.03705H19.7037V5.62964Z" fill="#4664A0"/>
<path d="M23.9259 0H23.2223H8.44445C6.89627 0 5.62964 1.26663 5.62964 2.81481V35.1852C5.62964 36.7333 6.89627 38 8.44445 38H29.5556C31.1037 38 32.3704 36.7333 32.3704 35.1852V10.5556V9.85193L23.9259 0ZM23.9259 2.11115L30.5408 9.85193H25.3333C24.6297 9.85193 23.9259 9.14826 23.9259 8.44452V2.11115ZM30.963 35.1852C30.963 35.8889 30.4 36.5926 29.5556 36.5926H8.44445C7.74079 36.5926 7.03705 36.0296 7.03705 35.1852V2.81481C7.03705 2.11115 7.60001 1.40741 8.44445 1.40741H22.5185V8.44444C22.5185 9.99263 23.7852 11.2593 25.3333 11.2593H30.963V35.1852Z" fill="#4664A0"/>
<path d="M28.1481 22.5186H9.85181V23.926H28.1481V22.5186Z" fill="#4664A0"/>
<path d="M28.1481 14.074H9.85181V15.4814H28.1481V14.074Z" fill="#4664A0"/>
<path d="M28.1481 18.2964H9.85181V19.7038H28.1481V18.2964Z" fill="#4664A0"/>
</svg>
