<svg width="50" height="35" viewBox="0 0 50 35" fill="none" xmlns="http://www.w3.org/2000/svg">
<path d="M0.23825 17.392C0.23825 11.76 1.16625 7.456 3.02225 4.48C4.87825 1.504 7.51825 0.0159998 10.9423 0.0159998C14.3343 0.0159998 16.9583 1.504 18.8143 4.48C20.7023 7.456 21.6462 11.76 21.6462 17.392C21.6462 22.992 20.7023 27.28 18.8143 30.256C16.9583 33.232 14.3343 34.72 10.9423 34.72C7.55025 34.72 4.91025 33.232 3.02225 30.256C1.16625 27.28 0.23825 22.992 0.23825 17.392ZM18.2383 17.392C18.2383 15.472 18.1103 13.648 17.8543 11.92C17.6303 10.16 17.2303 8.608 16.6543 7.264C16.0783 5.92 15.3263 4.848 14.3983 4.048C13.4703 3.248 12.3183 2.848 10.9423 2.848C9.53425 2.848 8.36625 3.248 7.43825 4.048C6.51025 4.848 5.75825 5.92 5.18225 7.264C4.63825 8.608 4.23825 10.16 3.98225 11.92C3.75825 13.648 3.64625 15.472 3.64625 17.392C3.64625 19.312 3.75825 21.152 3.98225 22.912C4.23825 24.64 4.63825 26.176 5.18225 27.52C5.75825 28.832 6.51025 29.888 7.43825 30.688C8.36625 31.488 9.53425 31.888 10.9423 31.888C12.3183 31.888 13.4703 31.488 14.3983 30.688C15.3263 29.888 16.0783 28.832 16.6543 27.52C17.2303 26.176 17.6303 24.64 17.8543 22.912C18.1103 21.152 18.2383 19.312 18.2383 17.392ZM26.9 23.056C27.476 21.52 28.276 19.792 29.3 17.872C30.356 15.952 31.54 13.984 32.852 11.968C34.164 9.952 35.588 7.984 37.124 6.064C38.66 4.112 40.212 2.336 41.78 0.735999H45.044V22.432H49.172V24.976H45.044V34H41.972V24.976H26.9V23.056ZM41.972 22.432V4.24C40.852 5.392 39.716 6.72 38.564 8.224C37.412 9.728 36.308 11.296 35.252 12.928C34.228 14.528 33.268 16.144 32.372 17.776C31.476 19.408 30.724 20.96 30.116 22.432H41.972Z" fill="#E4E4E4"/>
</svg>
