<svg width="42" height="42" viewBox="0 0 42 42" fill="none" xmlns="http://www.w3.org/2000/svg">
<path d="M7.7 7C6.783 7 6.776 8.414 7.7 8.4H38.5C38.9004 8.4 39.2 8.6996 39.2 9.1V27.3C39.2 28.224 40.6 28.224 40.6 27.3V9.1C40.6 7.9492 39.6508 7 38.5 7H7.7ZM4.9 9.8C3.9844 9.8 3.9844 11.2 4.9 11.2H35.7C36.1004 11.2 36.4 11.4996 36.4 11.9V30.1C36.4 31.031 37.814 31.024 37.8 30.1V11.9C37.8 10.7492 36.8508 9.8 35.7 9.8H4.9ZM2.1 12.6C0.9492 12.6 0 13.5492 0 14.7V31.5C0 32.6508 0.9492 33.6 2.1 33.6H32.9C34.0508 33.6 35 32.6508 35 31.5V14.7C35 13.5492 34.0508 12.6 32.9 12.6H2.1ZM2.1 14H32.9C33.3004 14 33.6 14.2996 33.6 14.7V31.5C33.6 31.9004 33.3004 32.2 32.9 32.2H2.1C1.6996 32.2 1.4 31.9004 1.4 31.5V14.7C1.4 14.2996 1.6996 14 2.1 14ZM3.5 15.4C3.1136 15.4 2.8 15.7136 2.8 16.1V18.9C2.8 19.8408 4.2 19.8184 4.2 18.9V16.8H6.3C7.2408 16.8 7.2184 15.4 6.3 15.4H3.5ZM17.5 15.4C13.2552 15.4 9.8 18.8552 9.8 23.1C9.8 27.3448 13.2552 30.8 17.5 30.8C21.7448 30.8 25.2 27.3448 25.2 23.1C25.2 18.8552 21.7448 15.4 17.5 15.4ZM28.7 15.4C27.7816 15.4 27.7592 16.8 28.7 16.8H30.8V18.9C30.8 19.8184 32.2 19.8408 32.2 18.9V16.1C32.2 15.7136 31.8864 15.4 31.5 15.4H28.7ZM17.5 16.8C20.986 16.8 23.8 19.614 23.8 23.1C23.8 26.586 20.986 29.4 17.5 29.4C14.014 29.4 11.2 26.586 11.2 23.1C11.2 19.614 14.014 16.8 17.5 16.8ZM17.5 18.2C17.1122 18.2 16.8 18.5122 16.8 18.9V19.7316C15.9908 20.0256 15.4 20.7956 15.4 21.7C15.4 22.848 16.352 23.8 17.5 23.8C17.892 23.8 18.2 24.0968 18.2 24.5C18.2 24.9032 17.892 25.2 17.5 25.2H16.1C15.6268 25.193 15.4 25.5472 15.4 25.9C15.4 26.2528 15.6268 26.607 16.1 26.6H16.8V27.3C16.8 27.6878 17.1122 28 17.5 28C17.8878 28 18.2 27.6878 18.2 27.3V26.4684C19.0092 26.1744 19.6 25.4044 19.6 24.5C19.6 23.352 18.648 22.4 17.5 22.4C17.108 22.4 16.8 22.1032 16.8 21.7C16.8 21.2968 17.108 21 17.5 21H18.9C19.3732 21.007 19.6 20.6528 19.6 20.3C19.6 19.9472 19.3732 19.593 18.9 19.6H18.2V18.9C18.2 18.5122 17.8878 18.2 17.5 18.2ZM3.5 26.6028C3.15 26.6 2.8 26.8296 2.8 27.3V30.1C2.8 30.4864 3.1136 30.8 3.5 30.8H6.3C7.2184 30.8 7.2408 29.4 6.3 29.4H4.2V27.3C4.2 26.8408 3.85 26.6056 3.5 26.6028ZM31.5 26.6028C31.15 26.6056 30.8 26.8408 30.8 27.3V29.4H28.7C27.7592 29.4 27.7816 30.8 28.7 30.8H31.5C31.8864 30.8 32.2 30.4864 32.2 30.1V27.3C32.2 26.8296 31.85 26.6 31.5 26.6028Z" fill="#4664A0"/>
</svg>
