<svg width="48" height="35" viewBox="0 0 48 35" fill="none" xmlns="http://www.w3.org/2000/svg">
<path d="M0.23825 17.392C0.23825 11.76 1.16625 7.456 3.02225 4.48C4.87825 1.504 7.51825 0.0159998 10.9423 0.0159998C14.3343 0.0159998 16.9583 1.504 18.8143 4.48C20.7023 7.456 21.6462 11.76 21.6462 17.392C21.6462 22.992 20.7023 27.28 18.8143 30.256C16.9583 33.232 14.3343 34.72 10.9423 34.72C7.55025 34.72 4.91025 33.232 3.02225 30.256C1.16625 27.28 0.23825 22.992 0.23825 17.392ZM18.2383 17.392C18.2383 15.472 18.1103 13.648 17.8543 11.92C17.6303 10.16 17.2303 8.608 16.6543 7.264C16.0783 5.92 15.3263 4.848 14.3983 4.048C13.4703 3.248 12.3183 2.848 10.9423 2.848C9.53425 2.848 8.36625 3.248 7.43825 4.048C6.51025 4.848 5.75825 5.92 5.18225 7.264C4.63825 8.608 4.23825 10.16 3.98225 11.92C3.75825 13.648 3.64625 15.472 3.64625 17.392C3.64625 19.312 3.75825 21.152 3.98225 22.912C4.23825 24.64 4.63825 26.176 5.18225 27.52C5.75825 28.832 6.51025 29.888 7.43825 30.688C8.36625 31.488 9.53425 31.888 10.9423 31.888C12.3183 31.888 13.4703 31.488 14.3983 30.688C15.3263 29.888 16.0783 28.832 16.6543 27.52C17.2303 26.176 17.6303 24.64 17.8543 22.912C18.1103 21.152 18.2383 19.312 18.2383 17.392ZM35.972 31.84C37.572 31.84 38.9 31.664 39.956 31.312C41.044 30.928 41.908 30.416 42.548 29.776C43.188 29.136 43.636 28.4 43.892 27.568C44.18 26.704 44.324 25.776 44.324 24.784C44.324 23.504 44.116 22.352 43.7 21.328C43.284 20.304 42.548 19.44 41.492 18.736C40.436 18.032 39.012 17.504 37.22 17.152C35.428 16.768 33.156 16.576 30.404 16.576C30.596 14.944 30.756 13.456 30.884 12.112C31.012 10.736 31.124 9.424 31.22 8.176C31.316 6.896 31.38 5.664 31.412 4.48C31.476 3.264 31.524 2.016 31.556 0.735999H46.532V3.472H34.292C34.26 4.08 34.212 4.864 34.148 5.824C34.084 6.784 34.02 7.776 33.956 8.8C33.892 9.792 33.812 10.752 33.716 11.68C33.62 12.608 33.54 13.344 33.476 13.888C35.94 13.952 38.068 14.256 39.86 14.8C41.652 15.344 43.124 16.08 44.276 17.008C45.428 17.936 46.276 19.056 46.82 20.368C47.396 21.68 47.684 23.136 47.684 24.736C47.684 26.144 47.444 27.456 46.964 28.672C46.516 29.888 45.812 30.944 44.852 31.84C43.892 32.736 42.676 33.44 41.204 33.952C39.732 34.464 37.988 34.72 35.972 34.72C34.948 34.72 33.988 34.64 33.092 34.48C32.228 34.352 31.444 34.192 30.74 34C30.068 33.808 29.492 33.616 29.012 33.424C28.532 33.232 28.18 33.072 27.956 32.944L28.772 30.16C28.964 30.288 29.284 30.448 29.732 30.64C30.212 30.832 30.756 31.024 31.364 31.216C32.004 31.376 32.708 31.52 33.476 31.648C34.276 31.776 35.108 31.84 35.972 31.84Z" fill="#E4E4E4"/>
</svg>
