<svg width="44" height="44" viewBox="0 0 44 44" fill="none" xmlns="http://www.w3.org/2000/svg">
<g clip-path="url(#clip0_33_183)">
<path d="M43.3125 15.8125C43.3125 14.5901 42.8368 13.4406 41.9719 12.5764C41.7725 12.3771 41.4824 12.3276 41.2356 12.4238C41.2445 11.5796 41.0149 10.7381 40.5625 9.99694V0.6875C40.5625 0.40975 40.3954 0.158125 40.1383 0.05225C40.0531 0.0165 39.9637 0.0061875 39.875 0.0061875V0H27.5H19.25H8.9375C8.75463 0 8.58 0.0721875 8.45144 0.201438L0.202125 8.45075C0.0776875 8.57519 0 8.74706 0 8.9375V37.8125C0 38.1927 0.307313 38.5 0.6875 38.5H31.625C31.7151 38.5 31.8044 38.4814 31.8883 38.4471C31.9729 38.412 32.0485 38.3611 32.1118 38.2979L40.3611 30.0486C40.4903 29.92 40.5625 29.7454 40.5625 29.5625V25.5234C41.3394 25.0291 42.0468 24.4736 42.6594 23.8611C43.5243 22.9969 44 21.8474 44 20.625C44 19.5319 43.6191 18.4965 42.9206 17.6722C43.1777 17.094 43.3125 16.4636 43.3125 15.8125ZM32.7498 20.1389L32.0623 20.8264L30.6873 22.2014L31.6594 23.1736L33.0344 21.7986L33.7219 21.1111L35.2467 19.5862C35.574 20.097 35.75 20.6917 35.75 21.3125C35.75 22.1677 35.4173 22.9714 34.8123 23.5764L34.1248 24.2639L32.0623 26.3264L33.0344 27.2986L35.0969 25.2361L35.7844 24.5486L35.9342 24.3987C36.2615 24.9095 36.4375 25.5042 36.4375 26.125C36.4375 26.9802 36.1048 27.7839 35.4998 28.3889C33.4132 30.4755 30.6377 31.625 27.687 31.625H24.75C22.4751 31.625 20.625 29.7749 20.625 27.5C20.625 25.2251 22.4751 23.375 24.75 23.375H25.5557C25.7366 23.375 25.9098 23.3035 26.0377 23.1777L33.1808 16.1446C33.5108 16.6561 33.6875 17.2521 33.6875 17.875C33.6875 18.7302 33.3548 19.5339 32.7498 20.1389ZM31.3404 8.25H20.9096L27.7846 1.375H38.2154L31.3404 8.25ZM25.8404 1.375L18.7639 8.45144C18.6347 8.58 18.5625 8.75463 18.5625 8.9375V18.6532L17.5691 17.9905C17.3381 17.8358 17.0376 17.8358 16.8066 17.9905L15.125 19.1111L13.4441 17.9905C13.3286 17.9135 13.1952 17.875 13.0625 17.875C12.9298 17.875 12.7964 17.9135 12.6809 17.9905L11.6875 18.6532V9.22213L19.5346 1.375H25.8404ZM9.22213 1.375H17.5904L10.7154 8.25H2.34713L9.22213 1.375ZM1.375 9.625H10.3125V19.9375C10.3125 20.1912 10.4521 20.4242 10.6755 20.5439C10.8982 20.6635 11.1712 20.6497 11.3809 20.5095L13.0625 19.3889L14.7434 20.5095C14.9744 20.6642 15.2749 20.6642 15.5059 20.5095L17.1875 19.3889L18.8684 20.5095C18.9832 20.5858 19.1166 20.625 19.25 20.625C19.3614 20.625 19.4727 20.5982 19.5745 20.5439C19.7979 20.4242 19.9375 20.1912 19.9375 19.9375V9.625H30.9375V16.423L25.2739 22H24.75C21.7174 22 19.25 24.4674 19.25 27.5C19.25 30.5326 21.7174 33 24.75 33H27.687C28.8014 33 29.8891 32.8419 30.9375 32.5593V37.125H1.375V9.625ZM39.1875 29.2779L32.3125 36.1529V32.1076C33.8504 31.4909 35.2646 30.5683 36.4719 29.3611C37.3368 28.4969 37.8125 27.3474 37.8125 26.125C37.8125 25.0305 37.4289 23.9965 36.7283 23.1715C36.9861 22.5933 37.125 21.9643 37.125 21.3125C37.125 20.0901 36.6493 18.9406 35.7844 18.0764C35.5884 17.8805 35.3045 17.831 35.0604 17.9211C35.0604 17.9059 35.0625 17.8908 35.0625 17.875C35.0625 16.6526 34.5868 15.5031 33.7219 14.6389C33.4544 14.3715 33.022 14.3708 32.7539 14.6348L32.3125 15.0693V9.22213L39.1875 2.34713V10.1777V14.5729V14.6733V25.146V29.2779ZM41.6873 22.8889C41.3442 23.232 40.9681 23.5572 40.5625 23.8604V14.9579L41.4342 14.0862C41.7615 14.597 41.9375 15.1917 41.9375 15.8125C41.9375 16.6677 41.6048 17.4714 40.9998 18.0764C40.7309 18.3452 40.7309 18.7798 40.9998 19.0486C41.2686 19.3174 41.7031 19.3174 41.9719 19.0486C41.9739 19.0465 41.9753 19.0451 41.9774 19.0431L42.1217 18.8987C42.449 19.4095 42.625 20.0042 42.625 20.625C42.625 21.4802 42.2923 22.2839 41.6873 22.8889Z" fill="#4664A0"/>
<path d="M24.75 24.75C23.2334 24.75 22 25.9834 22 27.5C22 29.0166 23.2334 30.25 24.75 30.25C26.2666 30.25 27.5 29.0166 27.5 27.5C27.5 25.9834 26.2666 24.75 24.75 24.75ZM24.75 28.875C23.9917 28.875 23.375 28.2583 23.375 27.5C23.375 26.7417 23.9917 26.125 24.75 26.125C25.5083 26.125 26.125 26.7417 26.125 27.5C26.125 28.2583 25.5083 28.875 24.75 28.875Z" fill="#4664A0"/>
<path d="M15.125 39.875H4.8125V41.25H15.125V39.875Z" fill="#4664A0"/>
<path d="M17.875 39.875H16.5V41.25H17.875V39.875Z" fill="#4664A0"/>
<path d="M20.625 39.875H19.25V41.25H20.625V39.875Z" fill="#4664A0"/>
<path d="M23.375 39.875H22V41.25H23.375V39.875Z" fill="#4664A0"/>
<path d="M29.5625 42.625H19.25V44H29.5625V42.625Z" fill="#4664A0"/>
<path d="M32.3125 42.625H30.9375V44H32.3125V42.625Z" fill="#4664A0"/>
<path d="M35.0625 42.625H33.6875V44H35.0625V42.625Z" fill="#4664A0"/>
<path d="M37.8125 42.625H36.4375V44H37.8125V42.625Z" fill="#4664A0"/>
<path d="M36.4375 39.1875H35.0625V40.5625H36.4375V39.1875Z" fill="#4664A0"/>
<path d="M39.1875 39.1875H37.8125V40.5625H39.1875V39.1875Z" fill="#4664A0"/>
<path d="M41.9375 39.1875H40.5625V40.5625H41.9375V39.1875Z" fill="#4664A0"/>
</g>
<defs>
<clipPath id="clip0_33_183">
<rect width="44" height="44" fill="white"/>
</clipPath>
</defs>
</svg>
