<svg width="49" height="35" viewBox="0 0 49 35" fill="none" xmlns="http://www.w3.org/2000/svg">
<path d="M0.23825 17.392C0.23825 11.76 1.16625 7.456 3.02225 4.48C4.87825 1.504 7.51825 0.0159998 10.9423 0.0159998C14.3343 0.0159998 16.9583 1.504 18.8143 4.48C20.7023 7.456 21.6462 11.76 21.6462 17.392C21.6462 22.992 20.7023 27.28 18.8143 30.256C16.9583 33.232 14.3343 34.72 10.9423 34.72C7.55025 34.72 4.91025 33.232 3.02225 30.256C1.16625 27.28 0.23825 22.992 0.23825 17.392ZM18.2383 17.392C18.2383 15.472 18.1103 13.648 17.8543 11.92C17.6303 10.16 17.2303 8.608 16.6543 7.264C16.0783 5.92 15.3263 4.848 14.3983 4.048C13.4703 3.248 12.3183 2.848 10.9423 2.848C9.53425 2.848 8.36625 3.248 7.43825 4.048C6.51025 4.848 5.75825 5.92 5.18225 7.264C4.63825 8.608 4.23825 10.16 3.98225 11.92C3.75825 13.648 3.64625 15.472 3.64625 17.392C3.64625 19.312 3.75825 21.152 3.98225 22.912C4.23825 24.64 4.63825 26.176 5.18225 27.52C5.75825 28.832 6.51025 29.888 7.43825 30.688C8.36625 31.488 9.53425 31.888 10.9423 31.888C12.3183 31.888 13.4703 31.488 14.3983 30.688C15.3263 29.888 16.0783 28.832 16.6543 27.52C17.2303 26.176 17.6303 24.64 17.8543 22.912C18.1103 21.152 18.2383 19.312 18.2383 17.392ZM28.196 20.8C28.196 14.304 29.748 9.376 32.852 6.016C35.988 2.656 40.532 0.847999 46.484 0.591998L46.676 3.232C44.724 3.36 42.916 3.664 41.252 4.144C39.62 4.592 38.164 5.312 36.884 6.304C35.604 7.264 34.532 8.512 33.668 10.048C32.804 11.584 32.212 13.472 31.892 15.712C32.756 15.264 33.796 14.88 35.012 14.56C36.228 14.208 37.524 14.032 38.9 14.032C40.692 14.032 42.212 14.32 43.46 14.896C44.708 15.44 45.716 16.176 46.484 17.104C47.252 18.032 47.812 19.104 48.164 20.32C48.516 21.536 48.692 22.816 48.692 24.16C48.692 25.408 48.5 26.656 48.116 27.904C47.732 29.152 47.124 30.288 46.292 31.312C45.492 32.304 44.468 33.12 43.22 33.76C42.004 34.4 40.548 34.72 38.852 34.72C35.364 34.72 32.708 33.504 30.884 31.072C29.092 28.608 28.196 25.184 28.196 20.8ZM38.612 16.768C37.14 16.768 35.844 16.944 34.724 17.296C33.636 17.616 32.612 18 31.652 18.448C31.588 18.992 31.556 19.424 31.556 19.744C31.556 20.032 31.556 20.4 31.556 20.848C31.556 22.352 31.652 23.776 31.844 25.12C32.068 26.464 32.452 27.648 32.996 28.672C33.572 29.696 34.324 30.512 35.252 31.12C36.18 31.696 37.364 31.984 38.804 31.984C39.988 31.984 40.996 31.776 41.828 31.36C42.66 30.912 43.332 30.336 43.844 29.632C44.356 28.928 44.724 28.112 44.948 27.184C45.204 26.256 45.332 25.28 45.332 24.256C45.332 21.696 44.756 19.808 43.604 18.592C42.484 17.376 40.82 16.768 38.612 16.768Z" fill="#E4E4E4"/>
</svg>
