<svg width="45" height="45" viewBox="0 0 45 45" fill="none" xmlns="http://www.w3.org/2000/svg">
<path d="M41.4844 22.6688C41.4917 22.6128 41.4917 22.5561 41.4844 22.5001C41.4818 19.3521 40.6965 16.2542 39.1991 13.4852C37.7016 10.7163 35.5392 8.3631 32.9063 6.63756C32.8021 6.49167 32.6462 6.39106 32.4704 6.35631C29.4787 4.49566 26.0271 3.50719 22.504 3.50222C18.981 3.49725 15.5266 4.47598 12.5297 6.32819C12.3539 6.36294 12.1979 6.46354 12.0938 6.60944C9.45693 8.33758 7.29197 10.6952 5.79435 13.4695C4.29673 16.2438 3.5136 19.3474 3.51567 22.5001C3.50838 22.5561 3.50838 22.6128 3.51567 22.6688C3.10031 22.8439 2.74557 23.1371 2.49555 23.5122C2.24553 23.8872 2.11125 24.3275 2.10942 24.7782V26.5079C2.10757 26.8113 2.16562 27.1122 2.28025 27.3931C2.39488 27.6741 2.56384 27.9297 2.77743 28.1452C2.99103 28.3608 3.24506 28.5321 3.52497 28.6493C3.80489 28.7665 4.10518 28.8273 4.40864 28.8282H40.5914C41.2007 28.8263 41.7844 28.5835 42.2152 28.1527C42.646 27.7219 42.8888 27.1382 42.8907 26.529V24.7993C42.893 24.345 42.7606 23.9001 42.5104 23.521C42.2601 23.1418 41.9031 22.8453 41.4844 22.6688ZM40.0782 22.5001H32.5266C32.5402 22.421 32.5402 22.3401 32.5266 22.261L29.468 13.8235C29.4189 13.6876 29.3291 13.5701 29.2108 13.4871C29.0925 13.4041 28.9516 13.3595 28.8071 13.3594H25.3125V5.14694C27.5533 5.51144 29.7023 6.30655 31.6407 7.48834V12.6563C31.6407 12.8428 31.7147 13.0216 31.8466 13.1535C31.9785 13.2854 32.1573 13.3594 32.3438 13.3594C32.5303 13.3594 32.7091 13.2854 32.841 13.1535C32.9728 13.0216 33.0469 12.8428 33.0469 12.6563V8.43756C35.23 10.0749 37.002 12.1981 38.2224 14.6389C39.4428 17.0797 40.0782 19.7711 40.0782 22.5001ZM23.9063 4.98522V14.0626C23.9063 14.249 23.9804 14.4279 24.1122 14.5597C24.2441 14.6916 24.4229 14.7657 24.6094 14.7657H28.2797L31.0922 22.5001H13.9149L16.7274 14.7657H20.3907C20.5771 14.7657 20.756 14.6916 20.8879 14.5597C21.0197 14.4279 21.0938 14.249 21.0938 14.0626V4.98522C21.5579 4.92194 22.0289 4.92194 22.5 4.92194C22.9711 4.92194 23.4422 4.92194 23.9063 4.98522ZM11.9532 8.43756V12.6563C11.9532 12.8428 12.0272 13.0216 12.1591 13.1535C12.291 13.2854 12.4698 13.3594 12.6563 13.3594C12.8428 13.3594 13.0216 13.2854 13.1535 13.1535C13.2853 13.0216 13.3594 12.8428 13.3594 12.6563V7.48834C15.2978 6.30655 17.4468 5.51144 19.6875 5.14694V13.3594H16.2282C16.0837 13.3595 15.9427 13.4041 15.8244 13.4871C15.7062 13.5701 15.6164 13.6876 15.5672 13.8235L12.5086 22.261C12.4832 22.3381 12.4713 22.4189 12.4735 22.5001H4.92192C4.92192 19.7711 5.55728 17.0797 6.77769 14.6389C7.9981 12.1981 9.77003 10.0749 11.9532 8.43756ZM41.4844 26.529C41.4844 26.7658 41.3903 26.9929 41.2229 27.1604C41.0554 27.3279 40.8283 27.4219 40.5914 27.4219H4.40864C4.17181 27.4219 3.94468 27.3279 3.77721 27.1604C3.60975 26.9929 3.51567 26.7658 3.51567 26.529V24.7993C3.51567 24.5625 3.60975 24.3353 3.77721 24.1679C3.94468 24.0004 4.17181 23.9063 4.40864 23.9063H40.5914C40.8283 23.9063 41.0554 24.0004 41.2229 24.1679C41.3903 24.3353 41.4844 24.5625 41.4844 24.7993V26.529Z" fill="#4664A0"/>
<path d="M40.7812 31.6406C40.5948 31.6406 40.4159 31.7147 40.2841 31.8466C40.1522 31.9784 40.0781 32.1573 40.0781 32.3438V30.9375C40.0781 30.751 40.004 30.5722 39.8722 30.4403C39.7403 30.3085 39.5615 30.2344 39.375 30.2344H5.625C5.43852 30.2344 5.25968 30.3085 5.12782 30.4403C4.99595 30.5722 4.92188 30.751 4.92188 30.9375V32.3438C4.92188 32.1573 4.8478 31.9784 4.71593 31.8466C4.58407 31.7147 4.40523 31.6406 4.21875 31.6406C4.03227 31.6406 3.85343 31.7147 3.72157 31.8466C3.5897 31.9784 3.51562 32.1573 3.51562 32.3438V37.2656C3.51562 37.4521 3.5897 37.631 3.72157 37.7628C3.85343 37.8947 4.03227 37.9688 4.21875 37.9688C4.40523 37.9688 4.58407 37.8947 4.71593 37.7628C4.8478 37.631 4.92188 37.4521 4.92188 37.2656V38.6719C4.91996 38.8414 4.97939 39.006 5.08922 39.1352C5.19904 39.2644 5.35187 39.3496 5.51953 39.375L19.1461 41.4844H19.2516C19.3601 41.4852 19.4674 41.4609 19.565 41.4133C19.6626 41.3657 19.7478 41.2962 19.8141 41.2102L22.5 37.6945L25.1859 41.2102C25.2522 41.2962 25.3374 41.3657 25.435 41.4133C25.5326 41.4609 25.6399 41.4852 25.7484 41.4844H25.8539L39.4805 39.375C39.6481 39.3496 39.801 39.2644 39.9108 39.1352C40.0206 39.006 40.08 38.8414 40.0781 38.6719V37.2656C40.0781 37.4521 40.1522 37.631 40.2841 37.7628C40.4159 37.8947 40.5948 37.9688 40.7812 37.9688C40.9677 37.9688 41.1466 37.8947 41.2784 37.7628C41.4103 37.631 41.4844 37.4521 41.4844 37.2656V32.3438C41.4844 32.1573 41.4103 31.9784 41.2784 31.8466C41.1466 31.7147 40.9677 31.6406 40.7812 31.6406ZM18.9844 40.0219L6.32812 38.0672V31.6406H21.7969V36.3234L18.9844 40.0219ZM38.6719 38.0672L26.0156 40.0219L23.2031 36.3234V31.6406H38.6719V38.0672Z" fill="#4664A0"/>
<path d="M27.4218 38.6719C27.5372 38.6713 27.6507 38.6423 27.7523 38.5875L36.8929 33.6656C36.9809 33.6262 37.0597 33.569 37.1247 33.4978C37.1896 33.4265 37.2392 33.3427 37.2703 33.2515C37.3015 33.1602 37.3136 33.0636 37.3058 32.9675C37.298 32.8714 37.2706 32.778 37.2252 32.6929C37.1798 32.6079 37.1173 32.5331 37.0418 32.4732C36.9663 32.4133 36.8792 32.3696 36.7861 32.3448C36.6929 32.3199 36.5957 32.3145 36.5004 32.3289C36.405 32.3432 36.3137 32.377 36.232 32.4281L27.0913 37.35C26.9539 37.4242 26.845 37.5421 26.782 37.685C26.7189 37.8279 26.7053 37.9877 26.7432 38.1393C26.781 38.2908 26.8683 38.4255 26.9912 38.5219C27.1141 38.6183 27.2656 38.6711 27.4218 38.6719Z" fill="#4664A0"/>
<path d="M18.197 32.7095C18.1529 32.6281 18.093 32.5562 18.021 32.4979C17.949 32.4397 17.8662 32.3963 17.7773 32.3701C17.6885 32.344 17.5953 32.3357 17.5032 32.3456C17.4112 32.3556 17.322 32.3837 17.2408 32.4282L9.50638 36.647C9.36839 36.7214 9.25924 36.8399 9.19631 36.9836C9.13338 37.1272 9.12027 37.2877 9.15906 37.4397C9.19786 37.5916 9.28633 37.7262 9.41041 37.8221C9.5345 37.918 9.68707 37.9696 9.84388 37.9688C9.96167 37.9694 10.0777 37.9404 10.1814 37.8845L17.9158 33.6657C17.9972 33.6216 18.0691 33.5618 18.1273 33.4897C18.1855 33.4177 18.229 33.3349 18.2551 33.246C18.2812 33.1572 18.2896 33.064 18.2796 32.972C18.2696 32.8799 18.2416 32.7907 18.197 32.7095Z" fill="#4664A0"/>
<path d="M28.2235 35.5009C28.3317 35.5029 28.4385 35.4763 28.5329 35.4236L32.7517 33.3142C32.8361 33.2713 32.9111 33.2118 32.972 33.1393C33.0329 33.0667 33.0785 32.9826 33.1061 32.892C33.1336 32.8013 33.1426 32.7061 33.1325 32.6119C33.1223 32.5177 33.0932 32.4266 33.047 32.3439C32.9639 32.1771 32.818 32.05 32.6414 31.9907C32.4647 31.9314 32.2717 31.9446 32.1048 32.0275L27.886 34.1369C27.742 34.2066 27.6261 34.3234 27.5574 34.4679C27.4886 34.6124 27.4713 34.7761 27.5082 34.9318C27.5451 35.0875 27.634 35.226 27.7602 35.3244C27.8864 35.4227 28.0424 35.4751 28.2025 35.4728L28.2235 35.5009Z" fill="#4664A0"/>
<path d="M18.7172 34.8961L15.2016 37.0055C15.0685 37.0844 14.9653 37.205 14.9077 37.3485C14.8501 37.4921 14.8415 37.6506 14.8831 37.7995C14.9248 37.9485 15.0144 38.0796 15.138 38.1724C15.2617 38.2653 15.4125 38.3148 15.5672 38.3133C15.6931 38.3113 15.8165 38.2775 15.9258 38.2149L19.4414 36.1055C19.5822 36.0031 19.68 35.8522 19.7159 35.6819C19.7518 35.5115 19.7232 35.3339 19.6357 35.1835C19.5482 35.033 19.408 34.9203 19.2422 34.8672C19.0765 34.8141 18.8969 34.8245 18.7383 34.8961H18.7172Z" fill="#4664A0"/>
</svg>
