<svg width="25" height="25" viewBox="0 0 25 25" fill="none" xmlns="http://www.w3.org/2000/svg">
<g clip-path="url(#clip0_2_48)">
<path d="M24.1354 10.6875L13.1979 0.791666C13.0065 0.618916 12.7578 0.523293 12.5 0.523293C12.2422 0.523293 11.9935 0.618916 11.8021 0.791666L0.864594 10.6875C0.761999 10.7792 0.67846 10.8901 0.618748 11.0141C0.559036 11.138 0.52432 11.2725 0.516582 11.4098C0.508843 11.5472 0.528235 11.6847 0.573648 11.8146C0.619062 11.9444 0.689609 12.0641 0.781261 12.1667C0.872912 12.2693 0.983874 12.3528 1.10781 12.4125C1.23175 12.4722 1.36623 12.5069 1.50359 12.5147C1.64094 12.5224 1.77847 12.503 1.90833 12.4576C2.03819 12.4122 2.15783 12.3417 2.26043 12.25L12.5 2.96875L22.7396 12.2292C22.8422 12.3208 22.9618 12.3914 23.0917 12.4368C23.2216 12.4822 23.3591 12.5016 23.4964 12.4938C23.6338 12.4861 23.7683 12.4514 23.8922 12.3917C24.0161 12.332 24.1271 12.2484 24.2188 12.1458C24.3104 12.0432 24.381 11.9236 24.4264 11.7937C24.4718 11.6639 24.4912 11.5263 24.4834 11.389C24.4757 11.2516 24.441 11.1172 24.3813 10.9932C24.3216 10.8693 24.238 10.7583 24.1354 10.6667V10.6875Z" fill="white"/>
<path d="M21.875 13.5417C21.5987 13.5417 21.3338 13.6514 21.1384 13.8468C20.9431 14.0421 20.8333 14.3071 20.8333 14.5833V22.3958H4.16668V14.5833C4.16668 14.3071 4.05693 14.0421 3.86158 13.8468C3.66623 13.6514 3.40128 13.5417 3.12501 13.5417C2.84874 13.5417 2.58379 13.6514 2.38844 13.8468C2.19309 14.0421 2.08334 14.3071 2.08334 14.5833V23.4375C2.08334 23.7138 2.19309 23.9787 2.38844 24.1741C2.58379 24.3694 2.84874 24.4792 3.12501 24.4792H21.875C22.1513 24.4792 22.4162 24.3694 22.6116 24.1741C22.8069 23.9787 22.9167 23.7138 22.9167 23.4375V14.5833C22.9167 14.3071 22.8069 14.0421 22.6116 13.8468C22.4162 13.6514 22.1513 13.5417 21.875 13.5417Z" fill="white"/>
</g>
<defs>
<clipPath id="clip0_2_48">
<rect width="25" height="25" fill="white"/>
</clipPath>
</defs>
</svg>
