<svg width="40" height="43" viewBox="0 0 40 43" fill="none" xmlns="http://www.w3.org/2000/svg">
<path fill-rule="evenodd" clip-rule="evenodd" d="M39.3334 27.8849C39.3334 38.3743 30.6667 42.3485 20.0001 42.3485C9.33341 42.3485 0.666748 38.3743 0.666748 27.8849C0.666748 25.1485 1.26675 23.3894 2.33341 20.9788C3.06675 19.4152 4.73341 26.5167 5.93341 25.2788C8.80008 22.2167 2.80008 15.1803 13.8667 9.90307C11.8667 15.3107 13.4667 17.4607 15.6001 17.4607C20.2667 17.4607 20.3334 10.6197 19.8001 1.95459C34.0667 12.7697 26.2001 16.9394 27.8001 18.3076C35.7334 19.1546 30.4667 2.01974 37.5334 18.4379C38.8667 21.3697 39.3334 24.4319 39.3334 27.8849Z" stroke="#4664A0" stroke-width="2"/>
</svg>
