<svg width="44" height="44" viewBox="0 0 44 44" fill="none" xmlns="http://www.w3.org/2000/svg">
<path d="M12.8334 11H9.16675V14.6667H12.8334V11Z" fill="#4664A0"/>
<path d="M20.1667 23.8333H16.5V27.4999H20.1667V23.8333Z" fill="#4664A0"/>
<path d="M20.1667 29.3333H16.5V43.9999H20.1667V29.3333Z" fill="#4664A0"/>
<path d="M12.8334 16.5H9.16675V44H12.8334V16.5Z" fill="#4664A0"/>
<path d="M5.49995 25.6667H1.83325V44.0001H5.49995V25.6667Z" fill="#4664A0"/>
<path d="M5.49995 20.1667H1.83325V23.8334H5.49995V20.1667Z" fill="#4664A0"/>
<path d="M27.4999 0H23.8333V3.6667H27.4999V0Z" fill="#4664A0"/>
<path d="M27.4999 5.5H23.8333V44H27.4999V5.5Z" fill="#4664A0"/>
<path d="M42.1667 33H38.5V44H42.1667V33Z" fill="#4664A0"/>
<path d="M42.1667 27.5H38.5V31.1667H42.1667V27.5Z" fill="#4664A0"/>
<path d="M34.8334 7.33325H31.1667V10.9999H34.8334V7.33325Z" fill="#4664A0"/>
<path d="M34.8334 12.8333H31.1667V43.9999H34.8334V12.8333Z" fill="#4664A0"/>
</svg>
