<svg width="28" height="40" viewBox="0 0 28 40" fill="none" xmlns="http://www.w3.org/2000/svg">
<path d="M27.6028 24.5847C27.2081 22.2533 26.3132 20.1239 25.4229 18.1919C22.7474 12.2946 19.5257 6.93894 16.3545 1.98258L15.9598 1.2896C15.4137 0.445152 14.7712 0 14.0278 0C12.9355 0 12.2426 0.991263 12.0452 1.2896C12.0452 1.2896 12.0452 1.2896 12.0452 1.3401L11.3522 2.43232C10.1131 4.4149 8.82352 6.49838 7.58443 8.57732C5.65236 11.8495 3.22463 16.2093 1.43943 20.8674C0.842811 22.4048 0.301296 23.9422 0.250791 25.6264C0.0534676 29.9862 1.63675 33.6576 4.90887 36.5305C7.43756 38.7609 10.6592 40 13.9773 40C18.8327 40 23.2476 37.5218 25.7717 33.3088C27.4559 30.5324 28.0984 27.5585 27.6028 24.5847ZM24.1838 32.3681C22.0039 36.0349 18.1856 38.1643 13.9727 38.1643C11.0998 38.1643 8.27281 37.1225 6.09291 35.1905C3.26594 32.7123 1.87998 29.4906 2.02685 25.7228C2.07736 24.3369 2.52251 22.9968 3.11907 21.5604C4.85382 16.9986 7.23105 12.7398 9.11726 9.51813C10.3059 7.4851 11.5954 5.40616 12.885 3.42359L13.5275 2.38182C13.5275 2.33131 13.578 2.33131 13.578 2.28086C13.679 2.13399 13.8763 1.88616 13.9727 1.83571C13.9727 1.83571 14.1196 1.88621 14.3674 2.28086L14.7621 2.92333C17.8369 7.77879 21.0586 13.0839 23.6836 18.8848C24.5281 20.7664 25.3679 22.7489 25.7167 24.8325C26.2169 27.4117 25.6707 29.9358 24.1838 32.3681ZM14.863 33.4557C14.863 33.9514 14.4683 34.346 13.9727 34.346C9.46145 34.346 5.84514 30.6792 5.84514 26.2184C5.84514 25.7228 6.23983 25.3281 6.73544 25.3281C7.23109 25.3281 7.62574 25.7228 7.62574 26.2184C7.6762 29.6879 10.5032 32.5149 13.9727 32.5149C14.4683 32.5149 14.863 32.96 14.863 33.4557Z" fill="#4664A0"/>
</svg>
