<svg width="20" height="9" viewBox="0 0 20 9" fill="none" xmlns="http://www.w3.org/2000/svg">
<path fill-rule="evenodd" clip-rule="evenodd" d="M17.4814 0.62132L3.51858 1.90942C3.13248 1.98352 2.78668 2.19612 2.54618 2.50712L0.90768 4.93642C0.72528 6.15052 0.85468 6.63352 1.57238 7.41702L4.20598 8.70152C4.56978 8.85072 4.97548 8.86182 5.34698 8.73302L18.0626 2.86072C19.9541 2.20452 19.4475 0.24382 17.4814 0.62132ZM4.81748 6.77462L12.8715 3.05512L4.03948 3.86982L2.83748 5.65202C2.83238 5.73322 2.83308 5.78152 2.83448 5.80682L4.81748 6.77462ZM2.81938 5.78112C2.81958 5.78122 2.82128 5.78402 2.82358 5.78932C2.82028 5.78362 2.81908 5.78102 2.81938 5.78112ZM17.963 2.57352C17.963 2.57352 17.9631 2.57342 17.963 2.57352V2.57352ZM17.5042 0.929319L17.5069 0.92752C17.507 0.92752 17.5061 0.928219 17.5042 0.929319Z" fill="#4664A0"/>
</svg>
