<svg width="43" height="41" viewBox="0 0 43 41" fill="none" xmlns="http://www.w3.org/2000/svg">
<path d="M42.9119 38.5876L31.3284 10.0817C31.1328 9.60184 30.7817 9.34623 30.256 9.34623H25.8622C26.5143 8.44028 26.8506 7.39085 26.8506 6.2158C26.8506 4.72239 26.325 3.45762 25.2737 2.40819C24.2225 1.3587 22.9613 0.833984 21.4688 0.833984C19.9762 0.833984 18.7146 1.3587 17.6634 2.40819C16.6125 3.45769 16.0869 4.72239 16.0869 6.2158C16.0869 7.32811 16.4443 8.37753 17.1381 9.34623H12.8283C12.3027 9.34623 11.9529 9.60191 11.7564 10.0817L0.0885727 38.5876C-0.0724666 38.9822 -0.00424269 39.3365 0.215043 39.6595C0.437491 39.9869 0.740669 40.1663 1.1609 40.1663H41.8395C42.2598 40.1663 42.563 39.9869 42.7854 39.6595C43.0047 39.3365 43.072 38.9822 42.9119 38.5876ZM19.3035 4.04964C19.9076 3.4352 20.628 3.14369 21.4689 3.14369C22.3097 3.14369 23.0242 3.4397 23.6342 4.04964C24.2437 4.65958 24.5378 5.37266 24.5378 6.2158C24.5378 7.05451 24.249 7.77652 23.6342 8.37753C23.0296 8.97405 22.3097 9.26107 21.4689 9.26107C20.628 9.26107 19.9027 8.97855 19.3035 8.37753C18.7043 7.78108 18.4205 7.05451 18.4205 6.2158C18.4204 5.37266 18.7093 4.65058 19.3035 4.04964ZM2.88491 37.8521L13.6065 11.6783H29.4784L40.0739 37.8521H2.88491Z" fill="#4664A0"/>
</svg>
