<svg width="40" height="40" viewBox="0 0 40 40" fill="none" xmlns="http://www.w3.org/2000/svg">
<path d="M37.8125 3.21875H33.5V0.9375C33.5 0.68886 33.4012 0.450403 33.2254 0.274587C33.0496 0.098772 32.8111 0 32.5625 0C32.3139 0 32.0754 0.098772 31.8996 0.274587C31.7238 0.450403 31.625 0.68886 31.625 0.9375V3.21875H25.125V0.9375C25.125 0.68886 25.0262 0.450403 24.8504 0.274587C24.6746 0.098772 24.4361 0 24.1875 0C23.9389 0 23.7004 0.098772 23.5246 0.274587C23.3488 0.450403 23.25 0.68886 23.25 0.9375V3.21875H16.75V0.9375C16.75 0.68886 16.6512 0.450403 16.4754 0.274587C16.2996 0.098772 16.0611 0 15.8125 0C15.5639 0 15.3254 0.098772 15.1496 0.274587C14.9738 0.450403 14.875 0.68886 14.875 0.9375V3.21875H8.375V0.9375C8.375 0.68886 8.27623 0.450403 8.10041 0.274587C7.9246 0.098772 7.68614 0 7.4375 0C7.18886 0 6.9504 0.098772 6.77459 0.274587C6.59877 0.450403 6.5 0.68886 6.5 0.9375V3.21875H2.1875C1.60734 3.21875 1.05094 3.44922 0.640704 3.85945C0.230468 4.26969 0 4.82609 0 5.40625L0 37.8125C0 38.3927 0.230468 38.9491 0.640704 39.3593C1.05094 39.7695 1.60734 40 2.1875 40H29.6875C29.7494 39.9999 29.8112 39.9936 29.8719 39.9813L29.9531 39.9562C30.0188 39.9417 30.0813 39.9152 30.1375 39.8781L30.2094 39.8406C30.2611 39.8059 30.3093 39.7661 30.3531 39.7219L39.7281 30.3469C39.7724 30.303 39.8122 30.2549 39.8469 30.2031C39.8469 30.1812 39.8688 30.1594 39.8813 30.1375C39.9186 30.0803 39.9451 30.0168 39.9594 29.95C39.9594 29.9219 39.9781 29.8969 39.9844 29.8656C39.9952 29.8069 40.0005 29.7472 40 29.6875V5.40625C40 4.82609 39.7695 4.26969 39.3593 3.85945C38.9491 3.44922 38.3927 3.21875 37.8125 3.21875ZM30.625 30.625H36.8L30.625 36.8V30.625ZM2.1875 5.09375H6.5V7.375C6.5 7.62364 6.59877 7.8621 6.77459 8.03791C6.9504 8.21373 7.18886 8.3125 7.4375 8.3125C7.68614 8.3125 7.9246 8.21373 8.10041 8.03791C8.27623 7.8621 8.375 7.62364 8.375 7.375V5.09375H14.875V7.375C14.875 7.62364 14.9738 7.8621 15.1496 8.03791C15.3254 8.21373 15.5639 8.3125 15.8125 8.3125C16.0611 8.3125 16.2996 8.21373 16.4754 8.03791C16.6512 7.8621 16.75 7.62364 16.75 7.375V5.09375H23.25V7.375C23.25 7.62364 23.3488 7.8621 23.5246 8.03791C23.7004 8.21373 23.9389 8.3125 24.1875 8.3125C24.4361 8.3125 24.6746 8.21373 24.8504 8.03791C25.0262 7.8621 25.125 7.62364 25.125 7.375V5.09375H31.625V7.375C31.625 7.62364 31.7238 7.8621 31.8996 8.03791C32.0754 8.21373 32.3139 8.3125 32.5625 8.3125C32.8111 8.3125 33.0496 8.21373 33.2254 8.03791C33.4012 7.8621 33.5 7.62364 33.5 7.375V5.09375H37.8125C37.8954 5.09375 37.9749 5.12667 38.0335 5.18528C38.0921 5.24388 38.125 5.32337 38.125 5.40625V9.875H1.875V5.40625C1.875 5.32337 1.90792 5.24388 1.96653 5.18528C2.02513 5.12667 2.10462 5.09375 2.1875 5.09375ZM1.875 37.8125V11.75H38.125V28.75H29.6875C29.4389 28.75 29.2004 28.8488 29.0246 29.0246C28.8488 29.2004 28.75 29.4389 28.75 29.6875V38.125H2.1875C2.10462 38.125 2.02513 38.0921 1.96653 38.0335C1.90792 37.9749 1.875 37.8954 1.875 37.8125Z" fill="#4664A0"/>
</svg>
