<svg width="30" height="30" viewBox="0 0 30 30" fill="none" xmlns="http://www.w3.org/2000/svg">
<path d="M29.865 23.9117L29.7157 23.4617C29.362 22.4106 28.2029 21.3143 27.1379 21.0254L23.1966 19.9487C22.1278 19.658 20.6031 20.049 19.8211 20.8309L18.3946 22.2574C13.2106 20.8566 9.14552 16.7913 7.74661 11.6083L9.17312 10.1818C9.95513 9.3998 10.3461 7.87715 10.0553 6.80832L8.98054 2.86502C8.68976 1.79813 7.59144 0.638953 6.54228 0.289194L6.09237 0.137922C5.0412 -0.211838 3.54207 0.141883 2.76013 0.923829L0.626358 3.05955C0.245162 3.43873 0.00153107 4.52328 0.00153107 4.52724C-0.0730986 11.3018 2.58326 17.8287 7.37528 22.6208C12.1555 27.401 18.658 30.0535 25.4128 29.9965C25.4482 29.9965 26.5642 29.7568 26.9454 29.3775L29.0791 27.2438C29.8611 26.4619 30.2147 24.9628 29.865 23.9117Z" fill="white"/>
</svg>
