<svg width="20" height="20" viewBox="0 0 20 20" fill="none" xmlns="http://www.w3.org/2000/svg">
<g clip-path="url(#clip0_2_12)">
<path fill-rule="evenodd" clip-rule="evenodd" d="M6.17438 18.0422L1.41346 19.5573L-0.0280762 20.016L1.99705 14.0345C1.65721 13.4098 1.38801 12.748 1.19622 12.0627C0.963567 11.2312 0.846172 10.3718 0.846172 9.50834C0.846172 6.96756 1.85706 4.5588 3.65917 2.7712C5.46714 0.977781 7.89392 -0.0159531 10.44 -0.0159531C12.9853 -0.0159531 15.4107 0.978976 17.2172 2.77265C19.0185 4.56134 20.0281 6.97065 20.0281 9.51139C20.0281 12.0517 19.0174 14.4602 17.2158 16.2477C15.4085 18.0408 12.9826 19.0349 10.4371 19.0349C9.62956 19.0349 8.82501 18.9352 8.04254 18.735C7.39723 18.5699 6.77096 18.3373 6.17435 18.0422L6.17438 18.0422Z" fill="#EEEEEE"/>
<path fill-rule="evenodd" clip-rule="evenodd" d="M19.2632 9.51137C19.2632 7.09192 18.2754 4.9013 16.6782 3.31539C15.0813 1.7297 12.8757 0.748917 10.44 0.748917C8.00222 0.748917 5.79554 1.72937 4.19784 3.3142C2.59943 4.89975 1.61105 7.08996 1.61105 9.50831C1.61105 10.3201 1.72332 11.1079 1.93281 11.8566C2.14098 12.6004 2.44551 13.3048 2.83153 13.9548L1.3024 18.4713L1.18152 18.8284L1.54069 18.7141L6.24386 17.2174C6.86653 17.5525 7.53274 17.815 8.23213 17.994C8.93678 18.1742 9.6753 18.27 10.4371 18.27C12.8738 18.27 15.0798 17.2895 16.6771 15.7047C18.2751 14.1193 19.2632 11.9293 19.2632 9.51138L19.2632 9.51137Z" fill="#54CC61"/>
<path fill-rule="evenodd" clip-rule="evenodd" d="M9.00471 7.11947C8.96597 7.04142 8.74232 6.50127 8.53619 6.0034C8.40442 5.68512 8.27875 5.38159 8.2541 5.32288C8.02195 4.76938 7.76537 4.78607 7.56857 4.79885C7.55565 4.79968 7.5432 4.8005 7.52656 4.8005C7.45789 4.8005 7.3904 4.79623 7.32046 4.7918C7.23302 4.78625 7.14226 4.7805 7.05648 4.7805C6.94245 4.7805 6.78712 4.80416 6.62356 4.88071C6.50227 4.93748 6.37713 5.02297 6.26261 5.14879C6.24591 5.16684 6.23332 5.18007 6.21966 5.19443C5.94717 5.48086 5.35315 6.10525 5.35315 7.30439C5.35315 8.56226 6.26023 9.75849 6.39353 9.93416L6.39305 9.93452L6.39428 9.93614L6.39578 9.93763C6.40101 9.94437 6.42025 9.97253 6.44871 10.0142C6.78371 10.5041 8.32377 12.7565 10.6649 13.6709C12.7888 14.4996 13.1731 14.4066 13.5164 14.3236C13.5748 14.3094 13.6319 14.2956 13.6936 14.2899C13.9716 14.2638 14.4264 14.0735 14.8091 13.8062C15.1265 13.5845 15.4037 13.3044 15.5098 13.0094C15.6044 12.7456 15.6579 12.5006 15.6828 12.2989C15.7188 12.0059 15.6903 11.7754 15.637 11.6864L15.6362 11.6856C15.5552 11.5521 15.415 11.4859 15.2047 11.3866C15.1676 11.3691 15.1279 11.3504 15.0898 11.3319L15.09 11.3317C14.9449 11.2579 14.4432 11.0126 14.0144 10.8099C13.7373 10.6789 13.491 10.5663 13.3935 10.5314C13.2563 10.4821 13.1368 10.4448 13.0087 10.4593C12.8634 10.4757 12.7367 10.5505 12.6192 10.7284L12.6189 10.7282C12.5599 10.8168 12.456 10.9497 12.3424 11.0888C12.1625 11.3092 11.9479 11.5567 11.8564 11.6606V11.6613C11.8173 11.7058 11.7837 11.73 11.7506 11.734C11.7048 11.7395 11.6418 11.7207 11.5546 11.6779C11.4988 11.65 11.4445 11.6265 11.3774 11.5976C11.0383 11.4513 10.3777 11.1663 9.62484 10.4997C9.35554 10.2613 9.11855 10.0008 8.92061 9.75628C8.60026 9.36058 8.38376 9.00805 8.29774 8.85955C8.22983 8.74309 8.30528 8.6676 8.37494 8.59794L8.37458 8.59754C8.45162 8.5206 8.53878 8.41582 8.62627 8.31069C8.66611 8.2628 8.70596 8.21489 8.75443 8.15906L8.75517 8.1583C8.87315 8.02112 8.92206 7.9212 8.98808 7.78636C8.99957 7.76289 9.01161 7.73829 9.02373 7.71413L9.02447 7.71339C9.08252 7.59641 9.09737 7.48511 9.08656 7.38086C9.07652 7.2838 9.04404 7.19719 9.00441 7.1196L9.0047 7.11947L9.00471 7.11947Z" fill="#FFFFFE"/>
</g>
<defs>
<clipPath id="clip0_2_12">
<rect width="20" height="20" fill="white"/>
</clipPath>
</defs>
</svg>
